<svg width="182" height="23" viewBox="0 0 182 23" fill="none" xmlns="http://www.w3.org/2000/svg">
<path d="M9.27712 20.7382C6.60122 20.7382 4.33944 19.7188 2.52365 17.6801L0.994568 19.1454C3.00149 21.5346 5.99595 23 9.27712 23C12.6857 23 15.712 21.5346 17.6234 19.3366C19.5029 17.1704 20.6497 14.3033 20.6497 11.5C20.6497 8.69667 19.5029 5.82964 17.6234 3.63158C15.712 1.46537 12.6857 0 9.27712 0C5.99595 0 3.00149 1.46537 0.994568 3.85457L2.52365 5.28809C4.40316 3.24931 6.63307 2.22992 9.27712 2.22992C11.7937 2.22992 13.9599 3.12188 15.712 4.90582C17.4641 6.72161 18.3561 8.91967 18.3561 11.5C18.3561 14.0485 17.4641 16.2147 15.712 18.0305C13.9599 19.8463 11.7937 20.7382 9.27712 20.7382ZM6.98349 12.5831H12.8131V10.4488H6.98349V12.5831Z" fill="#252525"/>
<path d="M43.8169 12.4557H27.9208V0.350415H25.5953V22.6496H27.9208V14.7175H43.8169V22.6496H46.1424V0.350415H43.8169V12.4557Z" fill="#252525"/>
<path d="M51.2294 0.350415V22.6496H69.7059V20.3878H53.5549V14.6537H65.5646L55.3388 2.58033H69.7059V0.350415H51.2294ZM53.5549 3.66343L61.041 12.5194H53.5549V3.66343Z" fill="#252525"/>
<path d="M73.5199 0.350415L83.3634 12.8379H74.5393V22.6496H76.8647V15.0997H84.9562C87.2179 15.0997 89.0337 14.3989 90.4035 12.9972C91.7415 11.6274 92.4104 9.87535 92.4104 7.80471C92.4104 5.73407 91.7415 3.95014 90.3717 2.51662C89.0019 1.0831 87.1224 0.350415 84.7969 0.350415H73.5199ZM78.139 2.58033H84.9562C86.3897 2.58033 87.6321 3.05817 88.6196 4.0457C89.6071 5.03324 90.1168 6.30748 90.1168 7.80471C90.1168 10.5125 88.4922 12.3283 86.1667 12.7424L78.139 2.58033Z" fill="#252525"/>
<path d="M114.865 2.61219V0.350415H96.8668V22.6496H99.1923V2.61219H114.865Z" fill="#252525"/>
<path d="M121.972 18.8906V0.350415H119.646V22.6496H139.939V0.350415H137.74L121.972 18.8906ZM123.565 20.3878L137.613 3.95014V20.3878H123.565Z" fill="#252525"/>
<path d="M144.729 22.6496H147.437L154.923 13.0291C151.228 12.4238 148.616 10.5443 148.616 7.45429C148.616 5.95706 149.157 4.74654 150.272 3.88643C151.355 3.02631 152.725 2.58033 154.35 2.58033H162.537V20.3878H157.726L156.006 22.6496H164.862V0.350415H154.318C151.706 0.350415 149.731 1.01939 148.361 2.35734C146.991 3.69529 146.29 5.38366 146.29 7.45429C146.29 10.6717 147.947 12.9335 151.291 14.2078L144.729 22.6496Z" fill="#252525"/>
<path d="M181.824 12.5831V10.3532H169.974V12.5831H181.824Z" fill="#252525"/>
</svg>
